<?xml version="1.0" standalone="no"?>
<!DOCTYPE svg PUBLIC "-//W3C//DTD SVG 20010904//EN"
 "http://www.w3.org/TR/2001/REC-SVG-20010904/DTD/svg10.dtd">
<svg version="1.0" xmlns="http://www.w3.org/2000/svg"
 width="760.000000pt" height="760.000000pt" viewBox="0 0 760.000000 760.000000"
 preserveAspectRatio="xMidYMid meet">
<metadata>
Created by potrace 1.11, written by Peter Selinger 2001-2013
</metadata>
<g transform="translate(0.000000,760.000000) scale(0.100000,-0.100000)"
fill="#000000" stroke="none">
<path d="M6585 4463 l0 -658 138 -3 137 -3 0 661 0 660 -138 0 -137 0 0 -657z"/>
<path d="M4173 5086 c-76 -36 -113 -123 -84 -199 18 -47 77 -95 125 -102 63
-10 105 7 149 61 30 38 37 55 37 91 0 46 -22 99 -49 121 -62 49 -114 57 -178
28z"/>
<path d="M928 5085 c-2 -2 -25 -6 -53 -9 -102 -14 -131 -26 -216 -93 -41 -32
-63 -58 -82 -101 -57 -123 -59 -230 -7 -337 37 -75 43 -82 110 -126 82 -52
141 -78 230 -100 95 -22 198 -67 228 -99 53 -57 7 -142 -84 -156 -69 -10 -145
1 -202 30 -45 23 -62 41 -118 123 -10 14 -16 13 -60 -12 -27 -16 -68 -41 -91
-57 -23 -15 -48 -28 -56 -28 -23 0 -48 -35 -41 -56 17 -46 108 -154 161 -190
100 -69 146 -82 298 -88 193 -8 304 26 403 124 73 72 95 126 98 242 3 118 -6
151 -61 221 -57 72 -206 156 -305 173 -75 12 -230 85 -252 118 -4 6 -8 28 -8
48 0 27 6 42 26 57 88 69 234 39 296 -61 31 -50 41 -52 88 -13 8 7 45 29 82
48 108 58 108 58 96 81 -6 11 -19 29 -30 40 -11 12 -26 33 -34 48 -18 35 -127
117 -184 139 -44 16 -103 27 -188 34 -22 2 -42 2 -44 0z"/>
<path d="M194 4720 c-37 -15 -103 -91 -110 -126 -17 -92 44 -182 138 -203 45
-10 113 10 149 45 107 102 34 287 -114 292 -23 0 -51 -3 -63 -8z"/>
<path d="M1899 4726 c-3 -3 -19 -8 -37 -11 -68 -12 -177 -74 -232 -132 -103
-109 -152 -268 -125 -406 31 -158 99 -256 232 -337 83 -51 199 -69 328 -51
165 23 309 151 359 317 34 116 33 187 -4 303 -28 88 -36 102 -98 167 -37 40
-78 75 -92 79 -14 4 -32 13 -40 20 -28 24 -151 55 -219 55 -37 0 -70 -2 -72
-4z m159 -281 c109 -46 156 -179 102 -290 -12 -25 -25 -45 -28 -45 -4 0 -18
-10 -32 -23 -71 -66 -187 -62 -266 11 -51 46 -67 86 -66 161 0 88 41 153 115
183 53 21 127 22 175 3z"/>
<path d="M2926 4705 c-32 -13 -68 -32 -80 -43 -39 -36 -45 -35 -42 3 2 21 -1
35 -8 36 -39 4 -256 0 -263 -4 -4 -3 -7 -206 -5 -451 l2 -446 138 0 137 0 1
278 c0 253 2 280 20 317 25 50 71 77 140 80 59 3 100 -17 135 -65 27 -36 27
-47 28 -342 l1 -268 133 0 132 0 -1 303 c-1 166 -6 330 -12 364 -26 151 -152
254 -317 259 -66 3 -91 -1 -139 -21z"/>
<path d="M3969 4710 c-85 -26 -169 -89 -169 -127 0 -13 -4 -23 -8 -23 -4 0 -8
31 -7 70 0 40 -4 70 -10 71 -41 4 -239 3 -251 -1 -14 -5 -15 -58 -15 -435 0
-237 0 -438 0 -447 1 -16 14 -18 136 -18 74 0 135 3 136 8 1 4 2 108 3 232 3
282 8 300 112 355 33 18 62 25 100 25 l54 0 0 149 c0 111 -3 150 -13 154 -7 2
-37 -3 -68 -13z"/>
<path d="M4847 4724 c-1 -2 -17 -6 -36 -9 -49 -9 -160 -68 -211 -113 -59 -52
-124 -175 -140 -265 -14 -78 -9 -161 16 -233 18 -54 101 -194 115 -194 4 0 23
-13 42 -30 83 -72 223 -108 378 -96 135 11 213 48 300 140 l39 41 -28 14 c-15
8 -29 17 -32 21 -3 4 -16 11 -30 15 -14 4 -47 23 -75 41 -45 31 -51 32 -70 19
-11 -8 -31 -23 -45 -33 -16 -12 -49 -18 -102 -21 -69 -3 -85 0 -133 23 -36 18
-59 37 -70 58 -8 17 -13 33 -11 36 3 2 144 4 315 3 171 0 313 4 316 8 3 5 7
39 9 77 10 177 -85 359 -227 438 -85 47 -162 68 -246 65 -39 -1 -72 -3 -74 -5z
m142 -244 c54 -15 99 -52 116 -93 8 -20 15 -39 15 -40 0 -2 -84 -3 -187 -2
-182 0 -188 1 -185 20 8 43 33 72 81 96 57 28 109 34 160 19z"/>
<path d="M5863 4720 c-64 -15 -149 -65 -203 -119 -54 -54 -116 -161 -126 -219
-3 -14 -7 -29 -10 -34 -3 -5 -5 -48 -5 -96 1 -101 25 -187 71 -256 17 -24 30
-48 30 -54 0 -17 124 -111 177 -134 36 -16 69 -21 138 -22 148 -1 199 15 265
87 l20 21 0 -47 0 -48 133 3 132 3 0 448 c1 246 -2 447 -5 448 -3 0 -62 2
-132 3 l-128 1 0 -43 c0 -33 -3 -40 -12 -33 -62 51 -84 64 -134 81 -59 20
-150 25 -211 10z m249 -276 c46 -22 85 -77 100 -144 37 -160 -105 -303 -260
-261 -101 27 -155 101 -156 211 0 97 32 156 104 193 46 23 64 27 115 24 33 -3
77 -13 97 -23z"/>
<path d="M4113 4696 c-3 -4 -5 -207 -5 -450 l0 -441 133 0 133 0 0 449 0 450
-128 0 c-70 1 -130 -3 -133 -8z"/>
<path d="M146 4218 c-12 -73 -27 -184 -32 -237 -4 -31 -10 -76 -14 -101 -5
-25 -9 -133 -10 -240 l-1 -195 153 1 c84 1 158 2 164 3 18 2 9 395 -11 501 -2
13 -7 57 -11 99 -4 42 -8 83 -10 91 -1 8 -3 36 -3 63 l-1 47 -110 0 -109 0 -5
-32z"/>
<path d="M814 3674 c-27 -7 -62 -17 -77 -23 -33 -13 -105 -67 -127 -96 -27
-36 -59 -119 -66 -175 -4 -30 -8 -62 -9 -70 -1 -11 -16 -15 -51 -16 -27 -1
-54 -2 -60 -3 -7 -1 -10 -44 -10 -123 l1 -123 60 -5 60 -5 0 -315 1 -315 135
-3 136 -3 -1 312 c-1 171 1 315 4 319 3 5 41 10 85 12 l80 3 0 122 c0 75 -3
124 -10 126 -5 2 -43 2 -82 1 l-73 -2 0 34 c0 23 8 41 27 59 26 23 47 30 113
37 l25 3 1 120 c0 66 -1 125 -3 131 -5 15 -99 14 -159 -2z"/>
<path d="M5130 3477 c0 -100 5 -213 11 -252 5 -38 12 -86 14 -105 25 -189 36
-264 41 -269 10 -10 199 -7 206 4 4 5 8 30 8 55 0 25 4 72 10 105 5 33 11 80
14 105 3 25 9 70 13 100 4 30 8 141 8 245 l0 190 -162 2 -163 1 0 -181z"/>
<path d="M2225 3519 c-49 -16 -109 -33 -132 -39 l-43 -11 0 -87 0 -88 -62 1
c-35 0 -68 -1 -73 -2 -7 -2 -11 -49 -10 -126 l0 -122 73 -3 72 -3 1 -182 c1
-209 2 -216 24 -296 33 -114 134 -169 314 -169 129 0 121 -9 121 129 l0 119
-57 -1 c-68 -1 -108 12 -122 40 -7 12 -11 89 -11 190 l0 171 95 0 95 0 0 125
c0 93 -3 125 -12 126 -7 1 -49 2 -93 3 l-80 1 -5 126 -5 125 -90 -27z"/>
<path d="M4090 3313 c-40 -6 -143 -45 -163 -62 -10 -8 -28 -32 -39 -53 -12
-21 -25 -38 -28 -38 -4 0 -6 29 -5 65 1 41 -2 65 -9 66 -84 6 -256 3 -257 -6
-1 -5 -3 -207 -3 -448 l-2 -438 135 3 136 3 0 226 c1 220 1 227 25 274 33 64
108 104 193 105 57 0 57 0 52 -27 -14 -68 -17 -176 -6 -239 15 -84 57 -161
126 -229 71 -71 81 -77 169 -109 119 -44 254 -42 351 3 11 5 34 14 50 20 17 7
57 38 91 69 99 94 157 221 156 343 -2 199 -124 380 -300 445 -105 39 -242 41
-347 5 -91 -32 -178 -103 -236 -194 -24 -38 -46 -70 -49 -72 -4 -2 -6 61 -5
141 1 80 -1 146 -4 148 -4 1 -17 0 -31 -1z m593 -276 c69 -46 96 -95 101 -181
8 -134 -85 -228 -215 -220 -68 4 -110 27 -147 80 -40 56 -52 108 -41 170 14
73 64 138 123 158 49 17 149 13 179 -7z"/>
<path d="M994 3291 c-3 -3 -4 -140 -4 -305 1 -343 9 -400 65 -476 44 -59 67
-77 134 -108 83 -37 192 -37 287 1 47 19 76 38 87 55 l16 27 1 -42 0 -43 138
0 139 0 0 445 c0 312 -3 445 -11 448 -9 3 -234 1 -258 -2 -4 -1 -8 -126 -10
-278 -3 -255 -5 -281 -23 -318 -26 -51 -61 -67 -143 -67 -75 1 -105 17 -135
75 -18 34 -19 61 -19 312 -1 151 -5 275 -9 276 -29 4 -251 3 -255 0z"/>
<path d="M2597 3285 c-2 -5 -3 -145 -2 -310 2 -250 5 -311 19 -365 41 -150
162 -236 331 -234 66 1 91 7 146 32 36 16 69 37 72 46 11 27 24 18 23 -16 l-1
-33 138 -3 137 -3 0 448 0 448 -122 -1 c-68 -1 -130 -2 -138 -3 -13 -1 -15
-35 -15 -257 0 -219 -3 -264 -18 -314 -16 -50 -24 -61 -55 -76 -41 -20 -128
-22 -170 -5 -15 6 -38 28 -52 48 -25 36 -25 38 -30 322 l-5 286 -127 0 c-77 0
-129 -4 -131 -10z"/>
<path d="M7269 3055 c-14 -8 -34 -26 -43 -40 -9 -14 -34 -36 -56 -50 -21 -13
-47 -33 -57 -43 -33 -34 -97 -74 -218 -135 -53 -27 -112 -46 -195 -63 -14 -3
-40 -9 -57 -14 -60 -16 -251 -4 -353 23 -92 23 -206 73 -242 105 -10 8 -18 12
-18 9 0 -16 -125 76 -221 161 -63 56 -103 67 -133 36 -25 -25 -19 -54 31 -148
43 -81 182 -256 202 -256 5 0 26 -16 47 -35 48 -44 208 -126 306 -157 65 -21
93 -23 258 -23 179 0 188 1 265 29 44 16 105 42 136 57 31 16 60 29 64 29 8 0
148 113 191 155 39 38 154 193 154 208 1 7 9 30 20 52 25 53 25 80 -2 99 -27
19 -45 20 -79 1z"/>
<path d="M5250 2708 c-46 -12 -108 -73 -120 -118 -18 -67 0 -124 53 -173 27
-24 82 -47 112 -47 50 0 116 40 148 90 77 122 -50 286 -193 248z"/>
</g>
</svg>
